<svg xmlns="http://www.w3.org/2000/svg" xml:space="preserve" fill="#fff" style="enable-background:new 0 0 2854.7 2702.5" viewBox="0 0 2854.7 2702.5"><path d="M2854.7 1881.3c-.6 4.9-1.6 9.8-1.8 14.7-1.1 49.4-6.8 98.3-16.1 146.8-19.6 102.1-62.9 193.4-128.7 273.6-98.4 120-224.6 194.1-376.5 224.1-61.7 12.2-124.2 15.1-186.9 9.9-109.8-9-213.4-40.1-312.7-87-91.7-43.3-176-98.2-255.5-160.9-70.5-55.6-135.8-116.9-197.9-181.6-4.9-5.1-5.3-10.2-5.3-16.3v-384.8c0-25.7.1-51.3-.1-77 0-4.8 1.1-7.9 5.6-10.5 37.3-21.3 74.4-42.9 111.6-64.4.8-.5 1.8-.6 3.8-1.3 3.2 3.6 6.8 7.5 10.2 11.4 48 54.6 99.2 106.1 156.2 151.5 57.3 45.7 118.8 84.4 187.6 110.6 61.1 23.3 124.2 33.8 189.7 31.1 137.9-5.6 251.7-95.1 297.8-190.8 24.6-51 34.2-104.6 29.8-161-5.1-65.6-27-125.9-57.5-183.4-31.2-58.9-70.6-112-114.1-162.3-2.1-2.4-4.1-5-6.9-8.3 3.7-2.2 6.8-4.1 9.9-5.8 49-28.3 98-56.6 147.1-84.7 6-3.4 9.1-7.6 10.9-14.2 16.6-62.4 33.4-124.7 50.3-187 .9-3.1 1.9-6.2 3.2-10.3 2.1 1.7 3.7 2.7 5 4 110.1 113.7 207.6 236.9 284.5 375.6 57.3 103.3 100.9 212 127.5 327.2 10.7 46.1 18.9 92.6 23.2 139.7 1.8 19.9 2.6 39.8 4 59.8.3 4.6 1.1 9.1 1.7 13.7l.4 97.9zM716.2 0c4.2.6 8.5 1.4 12.7 1.7 21.2 1.6 42.5 3 63.8 4.5 2.2.2 4.4.8 7 1.4v410c-3.8 0-7.3.2-10.8 0-30.3-2.1-60.6-1.9-90.8.1-58.9 3.9-116.2 14.3-170 39.7-85.5 40.5-135.6 107.9-151.9 200.9-8.3 47.4-7.1 94.8-.6 142.3 11.7 86.4 38.7 168.4 71.8 248.6 42.5 103 95 200.9 152 296.5 60.3 101 125.8 198.6 194.5 294 4.5 6.2 6.6 12.3 6.6 20.1-.2 142.3-.2 284.5-.2 426.8v12.5c-3.8-3.2-6-5-8.1-7-195.4-190-361.5-402.7-495.8-640C214.3 1307 143.9 1156.4 88 999.2 60.2 921 37.3 841.5 21.5 760 11.8 710 4.7 659.5 2.4 608.5c-.9-19.6-2.9-39.3-2.2-58.9 2.4-63.7 9.6-126.8 29.4-187.8C70.8 235.1 152.3 142.8 270.3 82 327.8 52.4 388.8 33 452 20.1c49.3-10 99.2-15.8 149.5-18.4 3.6-.2 7.2-1.1 10.7-1.7h104z"/><path d="M1294.4 2695.1c-2.4-2.3-4.8-4.5-7.1-6.8-134.6-135.9-269.1-271.8-403.7-407.5-5.1-5.1-7.2-10.2-7.2-17.5.2-741.3.2-1482.7.2-2224V28.8l2.1-.9c2.5 2.4 5 4.8 7.5 7.3C1020.7 170 1155.3 304.9 1290 439.7c4.8 4.8 7 9.7 7 16.6-.3 198.9-.4 397.8-.6 596.7v53.2c1.1.7 1.4 1 1.7 1.1.3.1.7.1.9 0 .6-.2 1.2-.4 1.8-.7.3-.1.6-.3.9-.5.9-.5 1.8-1 2.6-1.5 377.4-219.1 754.7-438.2 1132.1-657.3.3-.2.6-.3.9-.5.3-.1.6-.3.9-.3.3 0 .7 0 1.7.1-.5 2.8-.8 5.7-1.5 8.4-49.4 184.8-99 369.5-148.3 554.3-1.9 7-5.3 11.3-11.6 14.9-323.4 186.8-646.8 373.7-970.1 560.6-14.6 8.4-12.1 4.4-12.1 20.6 0 162.6 0 325.2.1 487.8 0 142.3.1 284.5.1 426.8 0 54.6.1 109.3.2 163.9v10.7c-.7.2-1.5.3-2.3.5z"/><path d="M968.2 15.5c14.9 3.1 29.9 6.1 44.7 9.5 162.5 36.8 318.7 92.1 470.6 159.9 216.2 96.5 417.8 217.6 604.3 363.4 3.1 2.4 6.1 5 10.5 8.5-103.5 59.5-206 118.3-308.8 177.4-123.2-95.9-262.8-153.1-416.1-180.3v-11.4c0-35.6-.1-71.3.1-106.9 0-6-1.5-10.6-5.6-15.2-34.7-38.2-68.7-77.1-103.9-114.9-26.4-28.2-54.6-54.7-81.5-82.4-66.8-68.3-137.1-133.1-207.4-197.9-2.7-2.4-5.5-4.7-8.2-7.1.4-.8.9-1.7 1.3-2.6zM1373.7 2514.1v-206.2c.6-.2.9-.4 1.2-.4.3 0 .7 0 .9.2 1.4 1.4 2.9 2.7 4.2 4.2 117.9 132.2 238.4 262 361.8 390.7-13-2.4-340.2-170.3-368.1-188.5z"/></svg>